<?xml version="1.0" standalone="no"?>
<svg xmlns:xlink="http://www.w3.org/1999/xlink" id="wave" style="transform:rotate(180deg); transition: 0.3s" viewBox="0 0 1440 100" version="1.1" xmlns="http://www.w3.org/2000/svg"><defs><linearGradient id="sw-gradient-0" x1="0" x2="0" y1="1" y2="0"><stop stop-color="rgba(255, 249, 234, 1)" offset="0%"/><stop stop-color="rgba(255, 249, 234, 1)" offset="100%"/></linearGradient></defs><path style="transform:translate(0, 0px); opacity:1" fill="url(#sw-gradient-0)" d="M0,0L40,15C80,30,160,60,240,61.7C320,63,400,37,480,28.3C560,20,640,30,720,31.7C800,33,880,27,960,20C1040,13,1120,7,1200,18.3C1280,30,1360,60,1440,70C1520,80,1600,70,1680,61.7C1760,53,1840,47,1920,41.7C2000,37,2080,33,2160,31.7C2240,30,2320,30,2400,36.7C2480,43,2560,57,2640,60C2720,63,2800,57,2880,55C2960,53,3040,57,3120,61.7C3200,67,3280,73,3360,76.7C3440,80,3520,80,3600,68.3C3680,57,3760,33,3840,23.3C3920,13,4000,17,4080,26.7C4160,37,4240,53,4320,63.3C4400,73,4480,77,4560,65C4640,53,4720,27,4800,23.3C4880,20,4960,40,5040,43.3C5120,47,5200,33,5280,36.7C5360,40,5440,60,5520,63.3C5600,67,5680,53,5720,46.7L5760,40L5760,100L5720,100C5680,100,5600,100,5520,100C5440,100,5360,100,5280,100C5200,100,5120,100,5040,100C4960,100,4880,100,4800,100C4720,100,4640,100,4560,100C4480,100,4400,100,4320,100C4240,100,4160,100,4080,100C4000,100,3920,100,3840,100C3760,100,3680,100,3600,100C3520,100,3440,100,3360,100C3280,100,3200,100,3120,100C3040,100,2960,100,2880,100C2800,100,2720,100,2640,100C2560,100,2480,100,2400,100C2320,100,2240,100,2160,100C2080,100,2000,100,1920,100C1840,100,1760,100,1680,100C1600,100,1520,100,1440,100C1360,100,1280,100,1200,100C1120,100,1040,100,960,100C880,100,800,100,720,100C640,100,560,100,480,100C400,100,320,100,240,100C160,100,80,100,40,100L0,100Z"/></svg>